<svg xmlns="http://www.w3.org/2000/svg" width="24.75" height="19.25" viewBox="0 0 24.75 19.25">
  <path id="Path_267" data-name="Path 267" d="M5.156-5.5A1.031,1.031,0,0,0,4.125-6.531,1.031,1.031,0,0,0,3.094-5.5,1.031,1.031,0,0,0,4.125-4.469,1.031,1.031,0,0,0,5.156-5.5Zm7.219-7.219a1.031,1.031,0,0,0,1.031-1.031,1.031,1.031,0,0,0-1.031-1.031,1.031,1.031,0,0,0-1.031,1.031A1.031,1.031,0,0,0,12.375-12.719Zm-5.844.344A1.031,1.031,0,0,0,5.5-11.344a1.031,1.031,0,0,0,1.031,1.031,1.031,1.031,0,0,0,1.031-1.031A1.031,1.031,0,0,0,6.531-12.375Zm12.12.5a.688.688,0,0,0-.967.1L13.512-6.622a2.723,2.723,0,0,0-1.137-.253,2.75,2.75,0,0,0-2.75,2.75,2.75,2.75,0,0,0,2.75,2.75,2.75,2.75,0,0,0,2.75-2.75,2.728,2.728,0,0,0-.546-1.63l4.174-5.156A.687.687,0,0,0,18.651-11.878Zm-4.9,7.753A1.375,1.375,0,0,1,12.375-2.75,1.375,1.375,0,0,1,11-4.125,1.375,1.375,0,0,1,12.375-5.5,1.375,1.375,0,0,1,13.75-4.125Zm6.875-2.406A1.031,1.031,0,0,0,19.594-5.5a1.031,1.031,0,0,0,1.031,1.031A1.031,1.031,0,0,0,21.656-5.5,1.031,1.031,0,0,0,20.625-6.531ZM24.75-5.5A12.375,12.375,0,0,0,12.375-17.875,12.375,12.375,0,0,0,0-5.5,12.311,12.311,0,0,0,1.678.722a1.36,1.36,0,0,0,1.179.653H21.893A1.36,1.36,0,0,0,23.072.722,12.311,12.311,0,0,0,24.75-5.5Zm-1.375,0A10.878,10.878,0,0,1,21.893,0L2.866.029A10.986,10.986,0,0,1,1.375-5.5a11.012,11.012,0,0,1,11-11A11.012,11.012,0,0,1,23.375-5.5Z" transform="translate(0 17.875)" fill="#bababa"/>
</svg>
