<svg xmlns="http://www.w3.org/2000/svg" width="19.25" height="22" viewBox="0 0 19.25 22">
  <path id="Path_266" data-name="Path 266" d="M17.187-16.5H15.125v-2.234a.517.517,0,0,0-.516-.516h-.344a.517.517,0,0,0-.516.516V-16.5H5.5v-2.234a.517.517,0,0,0-.516-.516H4.641a.517.517,0,0,0-.516.516V-16.5H2.062A2.063,2.063,0,0,0,0-14.437V.687A2.063,2.063,0,0,0,2.062,2.75H17.187A2.063,2.063,0,0,0,19.25.687V-14.437A2.063,2.063,0,0,0,17.187-16.5ZM2.062-15.125H17.187a.69.69,0,0,1,.687.687v2.062H1.375v-2.062A.69.69,0,0,1,2.062-15.125Zm15.125,16.5H2.062A.69.69,0,0,1,1.375.687V-11h16.5V.687A.69.69,0,0,1,17.187,1.375ZM6.359-5.5a.517.517,0,0,0,.516-.516V-7.734a.517.517,0,0,0-.516-.516H4.641a.517.517,0,0,0-.516.516v1.719a.517.517,0,0,0,.516.516Zm4.125,0A.517.517,0,0,0,11-6.016V-7.734a.517.517,0,0,0-.516-.516H8.766a.517.517,0,0,0-.516.516v1.719a.517.517,0,0,0,.516.516Zm4.125,0a.517.517,0,0,0,.516-.516V-7.734a.517.517,0,0,0-.516-.516H12.891a.517.517,0,0,0-.516.516v1.719a.517.517,0,0,0,.516.516ZM10.484-1.375A.517.517,0,0,0,11-1.891V-3.609a.517.517,0,0,0-.516-.516H8.766a.517.517,0,0,0-.516.516v1.719a.517.517,0,0,0,.516.516Zm-4.125,0a.517.517,0,0,0,.516-.516V-3.609a.517.517,0,0,0-.516-.516H4.641a.517.517,0,0,0-.516.516v1.719a.517.517,0,0,0,.516.516Zm8.25,0a.517.517,0,0,0,.516-.516V-3.609a.517.517,0,0,0-.516-.516H12.891a.517.517,0,0,0-.516.516v1.719a.517.517,0,0,0,.516.516Z" transform="translate(0 19.25)" fill="#bababa"/>
</svg>
